<svg xmlns="http://www.w3.org/2000/svg" viewBox="0 0 30 30"><path d="M6 23.2c-1-1.6-1.6-3.6-1.6-5.7C4.4 11.6 9.1 6.8 15 6.8c5.9 0 10.6 4.8 10.6 10.6 0 2.1-.6 4-1.6 5.7" fill="none" stroke="#fff" stroke-width="1.412" stroke-linejoin="round" stroke-miterlimit="10"/><path d="M15 6.8V9m-5.3-.7l1.1 1.9m-5 2l1.9 1.1m14.6 8.4l1.9 1.1M4.4 17.5h2.1m17 0h2.1M5.8 22.8l1.9-1.1m14.6-8.4l1.9-1.1m-5-2l1.1-1.9m-.5 6.4L15 17.5" fill="none" stroke="#fff" stroke-width="1.412" stroke-linecap="round" stroke-linejoin="round" stroke-miterlimit="10"/></svg>